# xmcd
#
# Track frame offsets:
#	150
#	15757
#	50557
#	65830
#	87662
#	106087
#	122487
#	148185
#	184502
#	211860
#	237517
#	258940
#
# Disc length: 3601 seconds
#
# Revision: 0
# Processed by: cddbd v1.5.1PL2 Copyright (c) Steve Scherf et al.
# Submitted via: audiograbber 1.83.01
#
DISCID=a30e0f0c
DTITLE=Alice (Sweet Alice) Hoskins - Comin' Home To The Blues
DYEAR=1994
DGENRE=Blues
TTITLE0=Jealous Love
TTITLE1=Eyes Full Of Tears
TTITLE2=Breakdown
TTITLE3=I Got To Know
TTITLE4=Runnin' Back
TTITLE5=I'll Never Forget
TTITLE6=I Forgot To Remember
TTITLE7=Stoop Down Baby
TTITLE8=What's A Woman To Do
TTITLE9=Drown In My Own Tears
TTITLE10=Boy Do A Man Size Job
TTITLE11=Refer Bag
EXTD=
EXTT0=
EXTT1=
EXTT2=
EXTT3=
EXTT4=
EXTT5=
EXTT6=
EXTT7=
EXTT8=
EXTT9=
EXTT10=
EXTT11=
PLAYORDER=
